<svg width="69" height="50" viewBox="0 0 69 50" fill="none" xmlns="http://www.w3.org/2000/svg">
<path d="M4.61971 20.8691L4.54678 20.8324C4.29156 20.759 4.03633 20.6855 3.7811 20.6855C2.28619 20.6855 1.52051 21.9338 1.52051 24.3568C1.52051 24.8341 1.55697 26.7064 1.62989 27.147V30.6347C1.55697 31.7728 1.52051 31.9931 1.52051 32.0298L1.62989 32.0665H1.52051C1.52051 34.1224 2.6508 34.563 3.59879 34.563C4.03633 34.563 4.36448 34.4895 4.58325 34.3794C5.13016 34.049 5.45831 33.535 5.5677 32.8008V30.7816C5.5677 30.2676 5.60416 29.5333 5.64062 28.5788C5.67708 27.6243 5.71354 25.4949 5.71354 24.9442C5.71354 22.7415 5.34893 21.4198 4.61971 20.8691ZM1.77574 31.8095C1.8122 31.9197 1.77574 31.9931 1.77574 32.0298V31.8095Z" fill="white"/>
<path d="M3.59979 20.3186H3.67271L3.74563 20.2818C4.87593 19.8046 5.45931 18.85 5.45931 17.455C5.45931 15.8763 4.54778 15.5459 3.74563 15.5459C3.63625 15.5459 3.52687 15.5459 3.38102 15.5826C1.9955 15.6927 1.30273 16.4637 1.30273 17.7487C1.30273 18.4095 1.5215 18.9602 1.95904 19.4742C2.39657 19.9514 2.94349 20.2451 3.59979 20.3186Z" fill="white"/>
<path d="M40.827 5.12004L24.5289 1.04492L23.2892 5.67073L23.7267 6.80883L22.9611 6.84554L21.4297 12.7196L25.1487 11.1776L26.0967 13.307L40.827 5.12004Z" fill="#26BED6"/>
<path d="M40.8267 5.12012L25.1484 11.1777L26.0964 13.3071L40.8267 5.12012Z" fill="white"/>
<path d="M23.2891 5.67179L23.7266 6.80988L40.8269 5.12109L23.2891 5.67179Z" fill="white"/>
<path d="M24.5656 16.097H24.4562C24.0186 15.9869 23.5446 16.0603 22.9613 16.2806C22.3779 16.5009 22.0133 16.8313 21.8674 17.2719C21.1382 19.9519 20.4819 21.8977 19.9714 23.1092C19.1693 24.9815 18.1119 26.6336 16.8358 28.0654C16.6535 28.249 16.4347 28.2857 16.0701 28.1388C15.4867 27.9553 15.0857 27.5147 14.794 26.8539C12.6063 21.6407 11.002 18.2631 10.054 16.8313C9.6894 16.2439 9.10602 15.9502 8.34034 15.9502C8.08511 15.9502 7.79342 15.9869 7.50173 16.0236C7.02773 16.1338 6.66312 16.4642 6.4079 17.0149C6.15267 17.5656 6.11621 18.0795 6.29851 18.5201C7.93926 21.8609 8.99664 24.027 9.50709 25.1284C10.3092 27.0374 10.8926 28.3958 11.1843 29.1668C12.7521 32.9115 14.2835 34.7471 15.8149 34.7471C15.9243 34.7471 16.0701 34.7471 16.1795 34.7104C17.091 34.5268 18.0025 33.3888 18.987 31.2227C20.1538 28.6528 20.9559 26.8539 21.357 25.9361C22.5237 23.5864 23.2894 22.0078 23.6905 21.2001L23.7269 21.1267C23.7634 21.0166 23.9093 20.6494 24.4926 19.4012C24.8937 18.5935 25.076 17.9694 25.076 17.4921C25.076 16.9782 24.8937 16.5376 24.5656 16.1338V16.097Z" fill="white"/>
<path d="M28.6112 15.6933L28.5383 15.6566C28.2831 15.5832 28.0279 15.5098 27.7726 15.5098C26.2777 15.5098 25.512 16.758 25.512 19.2178C25.512 19.8419 25.5485 20.3191 25.6214 20.6496V30.6354C25.5485 31.7735 25.512 31.9938 25.512 32.0672L25.585 32.1039H25.4756C25.4756 34.1966 26.6059 34.6371 27.5539 34.6371C27.9914 34.6371 28.3196 34.5637 28.5383 34.4535C29.0852 34.1231 29.4134 33.5724 29.5228 32.8382V24.3208C29.5228 23.8068 29.5592 23.0359 29.5957 22.0813C29.6322 21.0901 29.6686 20.3191 29.6686 19.8052C29.7051 17.6024 29.3405 16.2807 28.6112 15.6933ZM25.7673 31.8469C25.8037 31.8469 25.8037 31.8469 25.7673 31.8469C25.8037 31.9571 25.7673 32.0305 25.7673 32.1039V31.8469Z" fill="white"/>
<path d="M48.4093 16.0972L48.2999 16.0605C47.8624 15.9504 47.3884 16.0238 46.805 16.2441C46.2216 16.4644 45.857 16.7948 45.7112 17.2353C44.982 19.9154 44.3257 21.8611 43.8152 23.0727C43.0131 24.945 41.9557 26.5971 40.6795 28.0289C40.4972 28.2124 40.2785 28.2491 39.9139 28.1023C39.3305 27.9187 38.9294 27.4782 38.6377 26.8174C36.45 21.6409 34.8458 18.2633 33.8978 16.8315C33.3873 16.0238 32.5122 15.8035 31.3455 16.0238C30.8715 16.1339 30.5069 16.4644 30.2516 17.015C29.9964 17.5657 29.96 18.0797 30.1423 18.5203C31.7466 21.7877 32.8039 24.0272 33.3508 25.1286C34.153 27.0376 34.7364 28.396 35.0281 29.167C36.5959 32.9117 38.1273 34.7473 39.6586 34.7473C39.768 34.7473 39.9139 34.7473 40.0232 34.7106C40.9348 34.527 41.8463 33.3889 42.8307 31.2229C44.034 28.5796 44.7997 26.8174 45.2007 25.9362C46.3675 23.5866 47.1332 22.008 47.5342 21.2003L47.5707 21.1269C47.6072 20.98 47.753 20.5762 48.3364 19.4014C48.7375 18.5937 48.9198 17.9696 48.9198 17.4923C48.9198 16.9783 48.7375 16.5378 48.4093 16.1339V16.0972Z" fill="white"/>
<path d="M66.8594 22.7421C66.7136 21.861 66.6771 21.1635 66.6771 20.7229V18.7405C66.6771 16.7213 66.0938 15.6566 64.9999 15.6566C63.6144 15.6566 62.8122 16.4276 62.6299 17.9328V19.952C62.6299 24.5044 62.5935 27.1477 62.557 27.8085C62.4841 28.763 62.0101 29.7176 61.135 30.5987C60.26 31.4798 59.3849 31.9571 58.4369 31.9571C58.2546 31.9571 58.0358 31.9203 57.8171 31.8102C56.1763 31.1127 55.0096 30.0847 54.3533 28.763C53.8063 27.6249 53.5146 26.0463 53.5146 24.0638V20.5761C53.5146 18.8139 53.2594 17.2719 52.749 15.9136L52.7125 15.8401L52.6396 15.8034C52.1656 15.473 51.801 15.3262 51.4364 15.3262C50.9259 15.3262 50.4154 15.6199 49.9415 16.244C49.5039 16.8314 49.2852 17.4188 49.2852 17.9328C49.2852 18.2265 49.2852 18.667 49.3216 19.2177C49.3581 19.7684 49.3581 20.209 49.3581 20.466C49.3581 21.0534 49.3581 21.9345 49.3216 23.0726C49.2852 24.2107 49.2852 25.0918 49.2852 25.7159C49.2852 27.5882 49.5039 29.1669 49.9415 30.3784C50.7071 32.5077 50.853 32.7647 50.8894 32.8382C52.1291 34.5269 53.9886 35.4081 56.4315 35.4081C56.7597 35.4081 57.3066 35.3713 58.0358 35.3346C58.4734 35.2979 59.1661 35.1143 60.1141 34.7105C60.9163 34.3434 61.5726 34.1598 62.0466 34.1598C62.3747 34.1598 62.8852 34.1965 63.5415 34.3067C64.2342 34.4168 64.7447 34.4535 65.1093 34.4535C66.6771 34.4535 67.0053 33.5724 67.0053 32.8382V24.8348C67.0417 24.3942 66.9688 23.66 66.8594 22.7421Z" fill="white"/>
<path d="M47.062 38.6744C46.588 38.1604 45.8953 37.7566 45.0202 37.4629C43.9264 37.1324 42.9419 36.9856 42.1398 37.0957C40.3167 37.316 38.7854 38.087 37.6551 39.4086L37.6186 39.4453C37.3634 39.8492 37.1811 40.1429 37.1081 40.3632C36.5612 41.2443 36.2695 42.1988 36.2695 43.2268C36.2695 45.2093 37.1811 46.7879 39.0041 47.926C39.624 48.2931 40.4626 48.5868 41.5564 48.7704C41.8846 48.8071 42.3221 48.8438 42.7961 48.8438C43.2336 48.8438 43.7441 48.697 44.2545 48.44C44.8014 48.1463 45.239 47.8893 45.4942 47.7424C46.187 47.3753 46.8433 46.7879 47.4267 46.0169C48.01 45.246 48.3746 44.475 48.484 43.704C48.5205 43.5939 48.5205 43.4103 48.5205 43.19C48.5205 42.4925 48.3746 41.6848 48.083 40.767C47.8277 39.8492 47.4631 39.1516 47.062 38.6744ZM45.7494 43.447C45.7494 44.732 45.3484 45.7967 44.5462 46.5676C44.5462 46.5676 44.4733 46.641 44.1087 46.7145C42.9419 46.898 42.7232 46.898 42.6867 46.898C41.921 46.898 41.1918 46.5676 40.499 45.9802C39.8427 45.3928 39.4052 44.732 39.1135 43.9243C38.9677 43.447 38.9312 42.5292 39.1135 41.2443C39.15 40.8404 39.5146 40.3999 40.1709 39.8859C40.8272 39.3719 41.4106 39.1149 41.8481 39.1149H41.921C43.1242 39.1149 44.0358 39.5188 44.6921 40.3265C45.4213 41.1341 45.7494 42.1988 45.7494 43.447Z" fill="#26BED6"/>
<path d="M37.0336 46.8265H35.9762C35.8304 46.8265 35.6846 46.8632 35.4293 46.9366C35.1741 47.01 35.0647 47.0468 35.0647 47.0468C33.9709 47.0468 32.877 46.5328 31.8561 45.5415C30.7988 44.5503 30.2883 43.5223 30.2883 42.4209C30.2883 41.3196 30.6529 40.4752 31.3821 39.7776C32.1114 39.0801 33.0229 38.7497 34.1167 38.7497C34.299 38.7497 34.5543 38.7864 34.9189 38.8598C35.3199 38.9332 35.6116 38.9699 35.8304 38.9699C36.5232 38.9699 36.8878 38.6028 36.8878 38.0154C36.8878 37.685 36.7419 37.2444 36.0127 36.9507C35.6481 36.8039 35.2106 36.7305 34.773 36.7305C33.0229 36.7305 31.4186 37.2812 29.9966 38.3458C28.3923 39.5574 27.5537 41.136 27.5537 43.0451C27.5537 44.8807 28.2829 46.3492 29.7778 47.3772C30.9446 48.1849 32.476 48.7355 34.4084 48.9558C34.5543 48.9558 34.7001 48.9925 34.8459 48.9925C35.2835 48.9925 35.7575 48.9191 36.2315 48.7723C37.0701 48.4786 37.5076 48.038 37.5076 47.4506C37.4711 46.8632 37.143 46.8265 37.0336 46.8265Z" fill="#26BED6"/>
<path d="M67.6626 45.6142C67.6626 43.7785 67.5532 42.2733 67.4074 41.1352C67.0427 38.5286 66.1312 37.0601 64.7822 36.7664C64.4175 36.693 64.0165 36.6562 63.6883 36.6562C63.032 36.6562 62.3028 36.7664 61.4642 37.0234C61.209 37.0968 60.9537 37.2804 60.6256 37.5741C60.261 37.9412 59.9328 38.1248 59.6776 38.1248C59.3494 38.1248 58.9119 37.9779 58.4015 37.7209C57.1618 37.0968 57.0159 37.0234 56.9795 37.0234C56.5055 36.8398 55.9586 36.7297 55.3387 36.7297C54.6095 36.7297 52.8229 36.95 52.0207 37.4272C51.6561 37.1335 51.1821 36.9867 50.5623 36.9867C50.3071 36.9867 50.1248 37.0234 49.906 37.0968C49.3591 37.3171 49.0674 37.6108 49.0309 37.9779C48.958 39.3363 48.958 41.7593 49.0309 45.0635C49.0309 45.2837 49.0309 45.5407 48.9945 45.9079C48.958 46.3117 48.958 46.6054 48.958 46.789C48.958 48.441 49.6143 48.8082 50.1977 48.8082C50.4894 48.8082 50.854 48.698 51.2551 48.4778L51.328 48.441L51.3644 48.3676C51.5103 48.1473 51.6197 48.0005 51.6926 47.8536L51.7291 47.7802V47.7068C51.7291 47.1561 51.6926 46.3851 51.6197 45.4306C51.5468 44.2558 51.5103 43.4481 51.5103 43.0443C51.5103 41.9796 51.6197 41.0251 51.8749 40.2908C52.3124 38.9324 52.4218 38.5286 52.4583 38.345C53.0781 38.345 53.5886 38.3817 53.698 38.4552L53.7344 38.4919H53.7709C55.047 38.7856 55.2658 38.9324 55.3023 38.9692C55.6304 39.2629 55.9586 39.63 56.2502 40.144C56.5419 40.6212 56.7242 41.0618 56.7972 41.4656C56.9065 42.053 56.943 43.1911 56.9065 44.8432C56.9065 45.0268 56.8701 45.3205 56.8336 45.7243C56.7972 46.1281 56.7607 46.4586 56.7607 46.6788C56.7607 47.4498 56.9795 48.0739 57.3805 48.4778C57.5264 48.6246 57.7452 48.698 58.0368 48.698C59.0942 48.698 59.3859 48.2208 59.4224 47.8536C59.5317 47.046 59.5682 45.9079 59.5317 44.5128C59.4953 42.8607 59.4953 41.7593 59.5317 41.2086C59.5682 40.6212 59.8234 39.9237 60.2245 39.1527C60.3339 39.0059 60.4433 38.8957 60.5527 38.8223C60.7714 38.7856 60.9902 38.7489 61.2454 38.7489C62.084 38.7489 62.8497 38.9692 63.506 39.373C64.2352 39.8503 64.6363 40.4377 64.6363 41.1719C64.7092 45.2103 64.8186 47.4498 64.9645 48.0005C65.1468 48.7347 65.9489 48.955 67.0063 48.2942C67.4803 48.0005 67.6991 47.6701 67.6991 47.3029C67.6626 46.9358 67.6626 46.3851 67.6626 45.6142Z" fill="#26BED6"/>
<path d="M27.0815 45.54C26.9356 45.54 26.8262 45.5768 26.6804 45.6502C26.1335 45.9072 25.8418 46.3844 25.8418 47.0453C25.8418 47.4491 25.9512 47.8529 26.2064 48.1834C26.4252 48.5138 26.7533 48.6973 27.1544 48.6973C27.5555 48.6973 27.8836 48.5872 28.1753 48.3302C28.467 48.0732 28.6128 47.7428 28.6128 47.339C28.6128 46.9351 28.467 46.5313 28.1388 46.1274C27.8472 45.7236 27.4825 45.54 27.0815 45.54Z" fill="#26BED6"/>
</svg>
